<?xml version="1.0" encoding="UTF-8"?>
<svg id="Layer_2" data-name="Layer 2" xmlns="http://www.w3.org/2000/svg" viewBox="0 0 96 96">
  <g id="Design">
    <g>
      <path d="M23.75,11.88v14.85c-7.04-.26-6.62,3.71-3.83,8.79l6.8-.87c.92,10.19,12.17,27.4,23.78,24.28,9.16-2.46,16.5-15.32,17.79-24.28l6.8.87c2.79-5.07,3.21-9.04-3.83-8.79v-14.85h5.94s.13,10.76.13,10.76c8.47,1.29,6.57,13.76.82,17.42-2.07,1.32-5.36,1.29-6.4,2.51-1.27,1.49-3.32,8.07-5.62,11.21-11.34,15.54-28.01,15.31-38.27-.98-1.57-2.5-3.54-8.97-4.61-10.23s-3.99-1.1-5.81-2.1c-6.2-3.41-8.53-16.42.24-17.82l.13-10.76h5.94Z"/>
      <path d="M37.22,23.84c4.28-1.37,5.85,3.71,3.41,5.41-4.3,3.01-7.22-4.2-3.41-5.41Z"/>
      <path d="M55.04,23.84c4.28-1.37,5.85,3.71,3.41,5.41-4.3,3.01-7.22-4.2-3.41-5.41Z"/>
    </g>
  </g>
</svg>